<?xml version="1.0" standalone="no"?>
<!DOCTYPE svg PUBLIC "-//W3C//DTD SVG 20010904//EN"
 "http://www.w3.org/TR/2001/REC-SVG-20010904/DTD/svg10.dtd">
<svg version="1.0" xmlns="http://www.w3.org/2000/svg"
 width="1280.000000pt" height="1280.000000pt" viewBox="0 0 1280.000000 1280.000000"
 preserveAspectRatio="xMidYMid meet">
<metadata>
Created by potrace 1.15, written by Peter Selinger 2001-2017
</metadata>
<g transform="translate(0.000000,1280.000000) scale(0.100000,-0.100000)"
fill="#000000" stroke="none">
<path d="M6095 11589 c-700 -58 -1403 -388 -2005 -941 -273 -251 -425 -429
-636 -748 -251 -377 -284 -434 -284 -481 0 -24 3 -55 7 -68 6 -22 9 -23 77
-19 39 3 83 11 99 18 33 16 62 62 71 113 16 88 35 111 401 478 455 457 608
588 867 745 601 364 1351 455 1978 238 326 -112 690 -330 1020 -609 156 -132
200 -186 200 -245 0 -37 -38 -96 -87 -137 -136 -112 -297 -226 -335 -238 -47
-14 -46 -11 -27 -98 7 -30 19 -53 33 -62 19 -12 139 -37 421 -86 225 -40 497
-96 740 -154 33 -8 177 -42 320 -75 275 -64 342 -80 548 -129 71 -17 136 -31
146 -31 10 0 35 15 55 33 l38 32 -47 170 c-50 183 -88 288 -155 430 -178 381
-288 727 -405 1280 -33 158 -59 194 -131 181 -32 -6 -54 -24 -129 -104 -229
-242 -278 -288 -327 -301 -88 -25 -127 -9 -333 134 -466 322 -842 502 -1267
605 -259 63 -600 90 -853 69z"/>
<path d="M10260 8794 c-350 -39 -595 -128 -860 -312 -413 -287 -702 -752 -766
-1232 -18 -135 -18 -356 0 -490 14 -101 66 -322 85 -358 5 -9 21 -48 36 -87
79 -209 226 -427 402 -597 345 -331 808 -518 1283 -518 415 0 820 156 1149
441 317 275 514 607 598 1009 23 110 27 149 27 325 1 121 -4 224 -11 260 -7
33 -19 96 -28 140 -46 245 -201 575 -359 765 -118 141 -270 277 -411 368 -129
83 -317 170 -450 207 -33 10 -80 23 -105 31 -119 35 -461 63 -590 48z"/>
<path d="M2830 8636 c-125 -17 -216 -37 -325 -73 -528 -174 -978 -622 -1158
-1153 -79 -233 -91 -311 -90 -580 1 -257 25 -403 98 -610 206 -577 666 -992
1285 -1158 186 -50 498 -67 705 -37 240 34 479 126 710 273 265 169 521 452
655 722 116 236 190 541 190 785 0 277 -81 608 -212 869 -251 500 -757 863
-1323 952 -140 21 -406 26 -535 10z"/>
<path d="M3385 4672 c-60 -37 -60 -34 -11 -224 48 -188 77 -269 161 -448 168
-361 285 -730 385 -1214 41 -198 56 -226 120 -226 52 0 96 35 227 181 178 200
221 233 308 233 62 0 84 -12 372 -205 430 -289 744 -435 1156 -540 207 -52
350 -70 603 -76 202 -5 251 -3 395 17 256 35 461 89 713 187 470 184 907 480
1316 893 222 223 301 325 544 693 234 354 231 348 222 420 -8 65 -9 65 -120
47 -70 -11 -111 -45 -126 -102 -6 -21 -15 -57 -21 -80 -9 -38 -53 -86 -362
-397 -194 -194 -408 -403 -477 -464 -270 -238 -571 -419 -875 -527 -103 -36
-335 -93 -446 -110 -205 -30 -521 -30 -714 1 -260 41 -563 153 -822 304 -274
161 -670 468 -732 569 -29 46 -27 102 4 148 14 21 83 82 153 136 188 146 227
172 256 172 30 0 31 9 15 78 -16 63 -32 79 -93 91 -56 11 -275 52 -541 101
-161 30 -407 82 -540 115 -109 27 -1031 245 -1036 245 -2 0 -17 -8 -34 -18z"/>
</g>
</svg>
